<svg width="32" height="32" viewBox="0 0 32 32" fill="none" xmlns="http://www.w3.org/2000/svg">
<rect width="32" height="32" rx="16" fill="#FFCA40"/>
<g style="mix-blend-mode:luminosity">
<path d="M19.8984 11.0391H12.3984L10.8984 12.2391V19.4391L12.0984 21.2391H19.5984L21.0984 20.0391L21.3984 12.8391L19.8984 11.0391Z" fill="#FFCA40" stroke="#FFCA40" stroke-width="0.6"/>
<path d="M16.0016 13.7383V18.5383M18.4016 16.1383L13.6016 16.1383" stroke="white" stroke-width="0.9" stroke-linecap="round" stroke-linejoin="round"/>
<path d="M10.3008 16.1375C10.3008 13.4505 10.3008 12.107 11.1355 11.2722C11.9703 10.4375 13.3138 10.4375 16.0008 10.4375C18.6878 10.4375 20.0313 10.4375 20.866 11.2722C21.7008 12.107 21.7008 13.4505 21.7008 16.1375C21.7008 18.8245 21.7008 20.168 20.866 21.0028C20.0313 21.8375 18.6878 21.8375 16.0008 21.8375C13.3138 21.8375 11.9703 21.8375 11.1355 21.0028C10.3008 20.168 10.3008 18.8245 10.3008 16.1375Z" stroke="white" stroke-width="0.9"/>
</g>
<path d="M20.5 11.0352H13L11.5 12.2352V19.4352L12.7 21.2352H20.2L21.7 20.0352L22 12.8352L20.5 11.0352Z" fill="#FFCA40" stroke="#FFCA40" stroke-width="0.6"/>
<path d="M16.5992 13.7344V18.5344M18.9992 16.1344L14.1992 16.1344" stroke="white" stroke-width="0.9" stroke-linecap="round" stroke-linejoin="round"/>
<path d="M10.8984 16.1336C10.8984 13.4466 10.8984 12.1031 11.7332 11.2683C12.5679 10.4336 13.9114 10.4336 16.5984 10.4336C19.2854 10.4336 20.6289 10.4336 21.4637 11.2683C22.2984 12.1031 22.2984 13.4466 22.2984 16.1336C22.2984 18.8206 22.2984 20.1641 21.4637 20.9988C20.6289 21.8336 19.2854 21.8336 16.5984 21.8336C13.9114 21.8336 12.5679 21.8336 11.7332 20.9988C10.8984 20.1641 10.8984 18.8206 10.8984 16.1336Z" stroke="white" stroke-width="0.9"/>
</svg>
